<?xml version="1.0" encoding="utf-8"?>
<!-- Generator: Adobe Illustrator 16.0.0, SVG Export Plug-In . SVG Version: 6.00 Build 0)  -->
<!DOCTYPE svg PUBLIC "-//W3C//DTD SVG 1.1//EN" "http://www.w3.org/Graphics/SVG/1.1/DTD/svg11.dtd">
<svg version="1.1" id="Layer_1" xmlns="http://www.w3.org/2000/svg" xmlns:xlink="http://www.w3.org/1999/xlink" x="0px" y="0px"
	 width="800px" height="600px" viewBox="0 0 800 600" enable-background="new 0 0 800 600" xml:space="preserve">
<g>
	<path fill="#1A2353" d="M0,366.664h182.55V187.335H0V366.664z M117.047,201.832c31.678,10.201,55.839,40.269,55.839,75.168
		c0,34.362-23.087,64.429-55.839,75.167V201.832z M91.275,197.537c5.906,0,12.349,0.536,17.182,2.147
		c0,40.805-39.732,74.094-81.611,74.094H10.201C12.886,231.363,48.322,197.537,91.275,197.537 M27.382,281.295
		c41.342,0,81.611,33.288,81.611,74.094c-5.369,1.611-11.275,2.147-17.181,2.147c-43.49,0-80-33.825-81.611-75.168h17.181
		C27.382,282.369,27.382,281.295,27.382,281.295z"/>
	<path fill="#1A2353" d="M244.295,294.181v-11.275h38.121v-14.496h-38.121V247.47h40.269v-14.497h-55.839v30.604v30.066
		c0,15.57,6.98,25.772,22.551,27.92h0.537l0,0c1.611,0,3.222,0,4.833,0h28.993v-14.497h-28.993
		C252.349,307.604,244.295,304.919,244.295,294.181"/>
	<polygon fill="#1A2353" points="296.913,274.852 296.913,321.564 312.483,321.564 312.483,274.316 312.483,232.973 
		296.913,232.973 	"/>
	<path fill="#1A2353" d="M358.658,255.524c-19.866,0-34.362,13.423-34.362,33.825v0.537c0,20.402,14.497,33.288,35.436,33.288
		c10.202,0,18.792-2.685,27.919-11.275l-9.665-8.59c-4.832,4.832-9.664,7.517-17.718,7.517c-11.275,0-19.866-6.98-19.866-17.182
		h51.543c0-2.685,0-5.369,0-5.369C391.409,269.484,378.523,255.524,358.658,255.524 M339.866,282.369
		c0.537-8.054,8.591-14.497,18.255-14.497c9.665,0,17.181,5.906,17.181,14.497C374.765,282.369,339.866,282.369,339.866,282.369z"/>
	<path fill="#1A2353" d="M435.436,268.947c6.98,0,12.35,2.685,17.182,6.979l9.664-10.201c-7.518-8.054-17.182-10.738-26.309-10.738
		c-19.865,0-35.973,14.497-35.973,33.825c0,19.329,16.107,33.825,35.973,33.825c9.664,0,18.791-3.221,26.309-10.738L452.08,301.16
		c-4.832,4.833-9.664,6.98-17.182,6.98c-11.275,0-20.402-8.591-20.402-20.403C415.033,277.536,423.623,268.947,435.436,268.947"/>
	<path fill="#1A2353" d="M486.979,294.181L486.979,294.181v-22.55h14.498v-13.423h-14.498v-25.235h-15.57v31.678v30.604l0,0
		c0.537,14.496,7.518,24.161,22.551,26.309h0.537l0,0c1.611,0,3.221,0,4.832,0h2.686v-14.497h-1.611
		C495.033,307.604,486.979,304.919,486.979,294.181"/>
	<path fill="#1A2353" d="M529.932,266.799v-9.665h-15.57v31.141v32.752h15.57v-33.825c0-10.738,6.98-17.182,17.719-17.182
		c2.686,0,4.832,0,6.98,0.537v-14.496c-0.537,0-2.686-0.537-4.832-0.537C540.133,256.061,532.617,259.819,529.932,266.799"/>
	<path fill="#1A2353" d="M592.752,255.524c-19.867,0-35.975,15.033-35.975,33.825s15.57,33.825,35.975,33.825
		c19.865,0,35.973-15.033,35.973-33.825C628.725,270.02,612.08,255.524,592.752,255.524 M592.752,309.751
		c-11.275,0-20.404-8.591-20.404-20.402c0-11.813,8.592-20.402,20.404-20.402c11.811,0,20.402,8.59,20.402,20.402
		C613.154,301.16,604.027,309.751,592.752,309.751"/>
	<polygon fill="#1A2353" points="637.852,272.704 637.852,321.564 653.422,321.564 653.422,273.779 653.422,232.973 
		637.852,232.973 	"/>
	<path fill="#1A2353" d="M709.799,294.718c0,10.201-5.906,14.496-14.498,14.496c-8.053,0-14.496-4.295-14.496-14.496v-37.047
		h-15.033v18.255v19.865c0,18.256,13.422,27.383,30.066,27.383c16.107,0,30.605-8.591,30.605-27.919v-19.866v-18.255h-15.57v37.047
		L709.799,294.718L709.799,294.718z"/>
	<polygon fill="#1A2353" points="781.207,257.134 766.711,276.463 751.678,257.134 735.033,257.134 745.234,270.02 758.121,287.738 
		744.16,305.993 732.885,321.564 750.066,321.564 766.711,298.476 782.818,321.564 800,321.564 784.967,300.624 774.766,287.738 
		787.113,271.631 797.852,257.134 	"/>
</g>
</svg>
